<mxfile host="app.diagrams.net" modified="2021-08-22T17:48:09.406Z" agent="5.0 (Windows NT 10.0; Win64; x64) AppleWebKit/537.36 (KHTML, like Gecko) Chrome/92.0.4515.159 Safari/537.36" etag="XHstafWVvYto_KLSPjhb" version="14.9.8" type="github">
  <diagram id="pjHbaer8m_k7_cDRKmgO" name="Page-1">
    <mxGraphModel dx="1038" dy="579" grid="1" gridSize="10" guides="1" tooltips="1" connect="1" arrows="1" fold="1" page="1" pageScale="1" pageWidth="827" pageHeight="1169" math="0" shadow="0">
      <root>
        <mxCell id="0" />
        <mxCell id="1" parent="0" />
        <mxCell id="wBafVyjydXNQJPVj5CVr-1" value="Khách hàng" style="shape=umlLifeline;perimeter=lifelinePerimeter;container=1;collapsible=0;recursiveResize=0;rounded=0;shadow=0;strokeWidth=1;" vertex="1" parent="1">
          <mxGeometry x="120" y="80" width="100" height="240" as="geometry" />
        </mxCell>
        <mxCell id="wBafVyjydXNQJPVj5CVr-2" value="" style="points=[];perimeter=orthogonalPerimeter;rounded=0;shadow=0;strokeWidth=1;" vertex="1" parent="wBafVyjydXNQJPVj5CVr-1">
          <mxGeometry x="45" y="60" width="10" height="40" as="geometry" />
        </mxCell>
        <mxCell id="wBafVyjydXNQJPVj5CVr-3" value="Thiết bị/Giao diện" style="shape=umlLifeline;perimeter=lifelinePerimeter;container=1;collapsible=0;recursiveResize=0;rounded=0;shadow=0;strokeWidth=1;" vertex="1" parent="1">
          <mxGeometry x="300" y="80" width="100" height="240" as="geometry" />
        </mxCell>
        <mxCell id="wBafVyjydXNQJPVj5CVr-4" value="" style="points=[];perimeter=orthogonalPerimeter;rounded=0;shadow=0;strokeWidth=1;" vertex="1" parent="wBafVyjydXNQJPVj5CVr-3">
          <mxGeometry x="45" y="100" width="10" height="40" as="geometry" />
        </mxCell>
        <mxCell id="wBafVyjydXNQJPVj5CVr-5" value="Click chọn vào Tour muốn xem" style="verticalAlign=bottom;endArrow=block;shadow=0;strokeWidth=1;" edge="1" parent="1" source="wBafVyjydXNQJPVj5CVr-2" target="wBafVyjydXNQJPVj5CVr-4">
          <mxGeometry relative="1" as="geometry">
            <mxPoint x="275" y="160" as="sourcePoint" />
            <mxPoint x="320" y="200" as="targetPoint" />
            <Array as="points">
              <mxPoint x="240" y="180" />
              <mxPoint x="320" y="180" />
            </Array>
          </mxGeometry>
        </mxCell>
        <mxCell id="wBafVyjydXNQJPVj5CVr-6" value="Hệ thống" style="shape=umlLifeline;perimeter=lifelinePerimeter;container=1;collapsible=0;recursiveResize=0;rounded=0;shadow=0;strokeWidth=1;" vertex="1" parent="1">
          <mxGeometry x="480" y="80" width="100" height="240" as="geometry" />
        </mxCell>
        <mxCell id="wBafVyjydXNQJPVj5CVr-7" value="" style="points=[];perimeter=orthogonalPerimeter;rounded=0;shadow=0;strokeWidth=1;" vertex="1" parent="wBafVyjydXNQJPVj5CVr-6">
          <mxGeometry x="45" y="140" width="10" height="40" as="geometry" />
        </mxCell>
        <mxCell id="wBafVyjydXNQJPVj5CVr-8" value="Yêu cầu hệ thống" style="verticalAlign=bottom;endArrow=block;shadow=0;strokeWidth=1;" edge="1" parent="1" source="wBafVyjydXNQJPVj5CVr-4" target="wBafVyjydXNQJPVj5CVr-7">
          <mxGeometry relative="1" as="geometry">
            <mxPoint x="350" y="160.0000000000001" as="sourcePoint" />
            <mxPoint x="520" y="160.0000000000001" as="targetPoint" />
            <Array as="points">
              <mxPoint x="410" y="220" />
            </Array>
          </mxGeometry>
        </mxCell>
        <mxCell id="wBafVyjydXNQJPVj5CVr-11" value="Trả về kết quả" style="html=1;verticalAlign=bottom;endArrow=block;" edge="1" parent="1" source="wBafVyjydXNQJPVj5CVr-7" target="wBafVyjydXNQJPVj5CVr-12">
          <mxGeometry width="80" relative="1" as="geometry">
            <mxPoint x="520" y="260" as="sourcePoint" />
            <mxPoint x="460" y="300" as="targetPoint" />
            <Array as="points">
              <mxPoint x="500" y="260" />
              <mxPoint x="440" y="260" />
            </Array>
          </mxGeometry>
        </mxCell>
        <mxCell id="wBafVyjydXNQJPVj5CVr-12" value="" style="points=[];perimeter=orthogonalPerimeter;rounded=0;shadow=0;strokeWidth=1;" vertex="1" parent="1">
          <mxGeometry x="345" y="260" width="10" height="40" as="geometry" />
        </mxCell>
        <mxCell id="wBafVyjydXNQJPVj5CVr-13" value="Chuyển đến trang chi tiết &lt;br&gt;Tour tương ứng" style="html=1;verticalAlign=bottom;endArrow=block;" edge="1" parent="1" source="wBafVyjydXNQJPVj5CVr-12" target="wBafVyjydXNQJPVj5CVr-1">
          <mxGeometry width="80" relative="1" as="geometry">
            <mxPoint x="345" y="299" as="sourcePoint" />
            <mxPoint x="175" y="299" as="targetPoint" />
            <Array as="points">
              <mxPoint x="320" y="299" />
              <mxPoint x="260" y="299" />
            </Array>
          </mxGeometry>
        </mxCell>
        <mxCell id="wBafVyjydXNQJPVj5CVr-17" value="Xem chi tiết Tour" style="text;align=center;fontStyle=1;verticalAlign=middle;spacingLeft=3;spacingRight=3;strokeColor=none;rotatable=0;points=[[0,0.5],[1,0.5]];portConstraint=eastwest;" vertex="1" parent="1">
          <mxGeometry x="310" y="40" width="80" height="26" as="geometry" />
        </mxCell>
      </root>
    </mxGraphModel>
  </diagram>
</mxfile>
